#!OML:ASF H:\LiuWeirdWalks\Patient Classification 1\Patient 1\Session 1\male.ASF
:FULLY-SPECIFIED
:DEGREES
1202
root 0.236075 18.2975 15.8362 4.12716 2.48341 -0.431946
lowerback 2.30299 -3.38881 -1.82371
upperback 0.394841 -4.53874 3.42682
thorax -0.462106 -2.27502 4.65713
lowerneck -19.2056 3.88652 9.05404
upperneck 23.1565 5.1485 -9.33792
head 11.1725 1.99982 -4.15898
rclavicle 3.18055e-015 1.66979e-014
rhumerus -37.4469 -2.84232 -80.6161
rradius 34.1522
rwrist -9.59991
rhand -16.6624 -2.48532
rfingers 7.12502
rthumb 9.56104 -32.2484
lclavicle 3.18055e-015 1.66979e-014
lhumerus -35.8414 -5.18262 88.4399
lradius 39.3101
lwrist 14.7943
lhand -14.4422 -3.83258
lfingers 7.12502
lthumb 11.7027 25.8206
rfemur -14.5342 -3.50863 25.517
rtibia 25.2982
rfoot -12.734 -9.74441
rtoes -1.216
lfemur 1.51526 3.50024 -14.2097
ltibia 45.6716
lfoot 21.5533 -5.07544
ltoes -2.59153
1203
root 0.225301 18.2971 15.8772 3.99253 2.63799 -0.598854
lowerback 2.34788 -3.34619 -1.65553
upperback 0.400643 -4.47746 3.42318
thorax -0.500274 -2.24357 4.56105
lowerneck -19.1014 3.83589 9.04275
upperneck 23.1784 5.07869 -9.29441
head 11.1509 1.97509 -4.15251
rclavicle 2.80286e-014 -1.27222e-014
rhumerus -37.4907 -2.88377 -80.633
rradius 34.1238
rwrist -9.51908
rhand -16.6583 -2.53957
rfingers 7.12502
rthumb 9.56501 -32.3025
lclavicle 2.80286e-014 -1.27222e-014
lhumerus -36.0372 -5.06059 88.3394
lradius 39.4325
lwrist 14.9389
lhand -14.5195 -3.80792
lfingers 7.12502
lthumb 11.6281 25.8494
rfemur -14.119 -3.56071 25.7413
rtibia 25.0514
rfoot -12.5371 -9.82772
rtoes -0.709466
lfemur 0.756119 3.56671 -13.8563
ltibia 47.0738
lfoot 20.4936 -5.02413
ltoes -3.30514
1204
root 0.214519 18.2967 15.9165 3.86126 2.79277 -0.779263
lowerback 2.39152 -3.27563 -1.45672
upperback 0.425821 -4.37822 3.42249
thorax -0.522877 -2.19365 4.44926
lowerneck -19.071 3.76596 8.98482
upperneck 23.1919 4.98446 -9.2321
head 11.1359 1.93562 -4.13439
rclavicle -1.80894e-014 -7.15625e-015
rhumerus -37.5045 -2.9996 -80.6098
rradius 34.1166
rwrist -9.46416
rhand -16.6494 -2.61335
rfingers 7.12502
rthumb 9.57367 -32.3758
lclavicle -1.80894e-014 -7.15625e-015
lhumerus -36.172 -5.00359 88.2743
lradius 39.5368
lwrist 15.0805
lhand -14.611 -3.80148
lfingers 7.12502
lthumb 11.5399 25.8608
rfemur -13.7183 -3.60282 25.9819
rtibia 24.8085
rfoot -12.3324 -9.91451
rtoes -0.139089
lfemur -0.0254537 3.62052 -13.4952
ltibia 48.4631
lfoot 19.3624 -4.88653
ltoes -3.89124
1205
root 0.20421 18.2961 15.9547 3.73091 2.94769 -0.952398
lowerback 2.45535 -3.21968 -1.2827
upperback 0.461693 -4.29908 3.43171
thorax -0.540804 -2.15409 4.36271
lowerneck -19.0987 3.72579 8.93928
upperneck 23.2035 4.92886 -9.18837
head 11.1369 1.91114 -4.11914
rclavicle 1.41137e-014 2.62396e-014
rhumerus -37.4709 -3.06429 -80.6019
rradius 34.1093
rwrist -9.43404
rhand -16.6475 -2.67423
rfingers 7.12502
rthumb 9.57546 -32.4366
lclavicle 1.41137e-014 2.62396e-014
lhumerus -36.2748 -4.89273 88.193
lradius 39.6199
lwrist 15.1781
lhand -14.7106 -3.83373
lfingers 7.12502
lthumb 11.4439 25.8339
rfemur -13.3257 -3.64156 26.2117
rtibia 24.5711
rfoot -12.1181 -9.9941
rtoes 0.44521
lfemur -0.82027 3.66072 -13.1515
ltibia 49.8294
lfoot 18.1849 -4.66799
ltoes -4.48118
1206
root 0.194674 18.2956 15.9926 3.59934 3.10936 -1.1349
lowerback 2.50822 -3.16492 -1.10379
upperback 0.539338 -4.22215 3.45475
thorax -0.50835 -2.11693 4.28525
lowerneck -19.2516 3.69815 8.87846
upperneck 23.2218 4.88862 -9.1533
head 11.1665 1.88826 -4.10216
rclavicle 2.13694e-014 2.38542e-014
rhumerus -37.3457 -3.12806 -80.5865
rradius 34.1117
rwrist -9.42427
rhand -16.6558 -2.75579
rfingers 7.12502
rthumb 9.56747 -32.5186
lclavicle 2.13694e-014 2.38542e-014
lhumerus -36.2878 -4.76172 88.1159
lradius 39.684
lwrist 15.2317
lhand -14.7748 -3.85498
lfingers 7.12502
lthumb 11.382 25.8161
rfemur -12.9347 -3.6881 26.4477
rtibia 24.3368
rfoot -11.9155 -10.0622
rtoes 1.00971
lfemur -1.62551 3.68108 -12.8098
ltibia 51.1623
lfoot 16.9913 -4.37598
ltoes -4.90431
1207
root 0.185551 18.295 16.0298 3.46967 3.26086 -1.30324
lowerback 2.56002 -3.09456 -0.930374
upperback 0.603079 -4.1242 3.47209
thorax -0.490905 -2.06869 4.20493
lowerneck -19.3585 3.64836 8.79223
upperneck 23.2328 4.82441 -9.10366
head 11.1806 1.85512 -4.079
rclavicle -1.83876e-014 2.38542e-015
rhumerus -37.2521 -3.2064 -80.5552
rradius 34.124
rwrist -9.43937
rhand -16.6798 -2.8359
rfingers 7.12502
rthumb 9.54433 -32.5997
lclavicle -1.83876e-014 2.38542e-015
lhumerus -36.3324 -4.65251 88.0548
lradius 39.7436
lwrist 15.2199
lhand -14.796 -3.86503
lfingers 7.12502
lthumb 11.3615 25.8072
rfemur -12.5502 -3.71019 26.6656
rtibia 24.1078
rfoot -11.7248 -10.1332
rtoes 1.50807
lfemur -2.44045 3.69957 -12.4943
ltibia 52.4522
lfoot 15.8211 -4.03407
ltoes -5.31938
